<svg width="24" height="24" viewBox="0 0 24 24" fill="none" xmlns="http://www.w3.org/2000/svg">
<path fill-rule="evenodd" clip-rule="evenodd" d="M11.2955 2.08172C6.13295 2.44312 2.05714 6.74558 2.05714 12C2.05714 17.4913 6.50871 21.9429 12 21.9429C16.3994 21.9429 20.1321 19.0851 21.442 15.125C20.4339 15.5415 19.3291 15.7714 18.1714 15.7714C13.4376 15.7714 9.6 11.9339 9.6 7.2C9.6 5.28118 10.231 3.50961 11.2955 2.08172ZM0 12C0 5.37258 5.37258 0 12 0C12.6166 0 13.223 0.0465958 13.8157 0.13662C14.2257 0.198896 14.5582 0.501304 14.659 0.903582C14.7598 1.30586 14.6091 1.72931 14.2769 1.97752C12.6847 3.16711 11.6571 5.06343 11.6571 7.2C11.6571 10.7977 14.5737 13.7143 18.1714 13.7143C19.7269 13.7143 21.1526 13.1704 22.2728 12.2614C22.5946 12.0003 23.0418 11.9578 23.4071 12.1537C23.7723 12.3497 23.9843 12.7457 23.9447 13.1583C23.3614 19.2428 18.2369 24 12 24C5.37258 24 0 18.6274 0 12Z" fill="black"/>
</svg>
