<svg width="24" height="24" viewBox="0 0 24 24" fill="none" xmlns="http://www.w3.org/2000/svg">
<path d="M12 0C5.37258 0 0 5.37258 0 12C0 18.6274 5.37258 24 12 24C18.2367 24 23.3614 19.2428 23.9447 13.1587C23.9719 12.8755 23.8264 12.6037 23.5757 12.4693C23.3251 12.3348 23.0182 12.364 22.7973 12.5432C21.5836 13.528 20.0381 14.1176 18.3529 14.1176C14.4545 14.1176 11.2941 10.9573 11.2941 7.05882C11.2941 4.74338 12.4082 2.68833 14.1326 1.4C14.3606 1.22966 14.464 0.939055 14.3948 0.662982C14.3257 0.38691 14.0975 0.179375 13.8161 0.136636C13.2235 0.0466191 12.6169 0 12 0Z" fill="white"/>
</svg>
