<svg width="60" height="61" viewBox="0 0 60 61" fill="none" xmlns="http://www.w3.org/2000/svg">
<path d="M13.4247 0.916C24.3524 -0.305333 35.6476 -0.305333 46.5753 0.916C50.6781 1.37454 54.2797 3.59323 56.558 6.81537L28.2304 35.1429L19.4896 26.4021C18.4529 25.3654 16.7722 25.3654 15.7356 26.4021C14.699 27.4387 14.699 29.1194 15.7356 30.156L26.3534 40.7739C27.3901 41.8105 29.0708 41.8105 30.1074 40.7739L58.8302 12.0511C58.9097 12.4389 58.9732 12.8326 59.0199 13.2317C60.3267 24.405 60.3267 35.6924 59.0199 46.8656C58.2595 53.3672 53.0394 58.4589 46.5753 59.1814C35.6476 60.4027 24.3524 60.4027 13.4247 59.1814C6.96059 58.4589 1.74052 53.3672 0.980108 46.8656C-0.326703 35.6924 -0.326702 24.405 0.980108 13.2317C1.74052 6.73021 6.9606 1.63845 13.4247 0.916Z" fill="#332AD5"/>
</svg>
