<svg width="20" height="18" viewBox="0 0 20 18" fill="none" xmlns="http://www.w3.org/2000/svg">
<path fill-rule="evenodd" clip-rule="evenodd" d="M8.48638 1.11413C9.1608 -0.0481364 10.8392 -0.0481332 11.5136 1.11413L13.579 4.67349C13.7694 5.00158 14.0984 5.22547 14.4735 5.28212L17.9031 5.80012C19.3981 6.02592 19.9225 7.91349 18.7582 8.87809L16.2593 10.9484C15.9086 11.239 15.7437 11.6974 15.8289 12.1448L16.5289 15.8208C16.8031 17.2607 15.2914 18.3795 13.9944 17.6966L10.5824 15.9C10.2179 15.7081 9.78216 15.7081 9.41763 15.9L6.0056 17.6966C4.70859 18.3795 3.19696 17.2607 3.47116 15.8208L4.17114 12.1448C4.25634 11.6974 4.09142 11.239 3.74068 10.9484L1.24178 8.87809C0.0774961 7.91349 0.601899 6.02592 2.09689 5.80012L5.52654 5.28212C5.9016 5.22547 6.23065 5.00158 6.42103 4.67349L8.48638 1.11413ZM10.2162 1.86696C10.1199 1.70092 9.88013 1.70092 9.78378 1.86696L7.71843 5.42632C7.29961 6.14811 6.5757 6.64067 5.75056 6.76529L2.32091 7.2833C2.10734 7.31556 2.03243 7.58521 2.19875 7.72301L4.69765 9.79332C5.46929 10.4326 5.83211 11.441 5.64466 12.4254L4.94468 16.1014C4.90551 16.3071 5.12146 16.4669 5.30675 16.3693L8.71878 14.5727C9.52075 14.1505 10.4793 14.1505 11.2812 14.5727L14.6933 16.3693C14.8786 16.4669 15.0945 16.3071 15.0553 16.1014L14.3554 12.4254C14.1679 11.441 14.5307 10.4326 15.3024 9.79332L17.8013 7.72301C17.9676 7.58521 17.8927 7.31556 17.6791 7.2833L14.2495 6.76529C13.4243 6.64067 12.7004 6.14811 12.2816 5.42632L10.2162 1.86696Z" fill="black"/>
</svg>
