<svg width="22" height="20" viewBox="0 0 22 20" fill="none" xmlns="http://www.w3.org/2000/svg">
<path d="M11.8649 0.996283C11.4796 0.332132 10.5204 0.33213 10.1351 0.996283L7.42101 5.67359C7.23064 6.00168 6.90159 6.22557 6.52653 6.28222L1.44021 7.05044C0.58593 7.17947 0.28627 8.25808 0.951576 8.80928L4.74067 11.9485C5.09141 12.2391 5.25633 12.6975 5.17113 13.1449L4.17996 18.35C4.02327 19.1729 4.88706 19.8122 5.62821 19.4219L10.4176 16.9001C10.7821 16.7082 11.2178 16.7082 11.5824 16.9001L16.3718 19.4219C17.1129 19.8122 17.9767 19.1729 17.82 18.35L16.8289 13.1449C16.7437 12.6975 16.9086 12.2391 17.2593 11.9485L21.0484 8.80928C21.7137 8.25808 21.4141 7.17947 20.5598 7.05044L15.4735 6.28222C15.0984 6.22557 14.7694 6.00168 14.579 5.67359L11.8649 0.996283Z" fill="black"/>
</svg>
