<svg width="19" height="17" viewBox="0 0 19 17" fill="none" xmlns="http://www.w3.org/2000/svg">
<path fill-rule="evenodd" clip-rule="evenodd" d="M0.386265 2.4867C0.552087 1.06893 1.75332 0 3.18076 0H13.9234C14.1055 0 14.2814 0.0662597 14.4183 0.186415L17.1788 2.6102C17.7994 3.15511 18.1422 3.95008 18.1125 4.77543L17.7685 14.3488C17.7154 15.8281 16.5007 17 15.0203 17H3.01006C1.68044 17 0.557913 16.012 0.389069 14.6932C-0.107429 10.815 -0.128817 6.89066 0.32538 3.00728L0.386265 2.4867ZM3.18076 1.5C2.51434 1.5 1.95353 1.99905 1.87611 2.66096L1.81522 3.18153C1.3752 6.94371 1.39592 10.7455 1.87693 14.5027C1.94992 15.0729 2.43523 15.5 3.01006 15.5H3.64716V11.25C3.64716 10.2835 4.43066 9.5 5.39716 9.5H12.3972C13.3637 9.5 14.1472 10.2835 14.1472 11.25V15.5H15.0203C15.6932 15.5 16.2453 14.9673 16.2695 14.2949L16.6135 4.72157C16.627 4.34641 16.4712 3.98505 16.1891 3.73737L13.6472 1.5055V3.84998C13.6472 4.81647 12.8637 5.59998 11.8972 5.59998H5.89716C4.93066 5.59998 4.14716 4.81647 4.14716 3.84998V1.5H3.18076ZM5.64716 1.5V3.84998C5.64716 3.98805 5.75908 4.09998 5.89716 4.09998H11.8972C12.0352 4.09998 12.1472 3.98805 12.1472 3.84998V1.5H5.64716ZM12.6472 15.5H5.14716V11.25C5.14716 11.1119 5.25908 11 5.39716 11H12.3972C12.5352 11 12.6472 11.1119 12.6472 11.25V15.5Z" fill="#F5F4FB"/>
</svg>
