<svg width="17" height="14" viewBox="0 0 17 14" fill="none" xmlns="http://www.w3.org/2000/svg">
<path fill-rule="evenodd" clip-rule="evenodd" d="M16.5 7C16.5 7.2311 16.3747 7.44404 16.1727 7.55628L14.2362 8.63213C10.4083 10.7587 6.37312 12.4886 2.19353 13.7947L1.62922 13.971C1.43599 14.0314 1.22557 13.9963 1.06247 13.8763C0.899362 13.7564 0.803043 13.5661 0.803043 13.3636L0.803043 8.48484C0.803043 8.15307 1.05794 7.87696 1.38866 7.85051L1.58154 7.83508C3.40702 7.68904 5.21844 7.40971 7.00139 6.99973C5.19341 6.58406 3.35615 6.30275 1.50465 6.15852L1.38999 6.14959C1.0587 6.12379 0.803043 5.84744 0.803043 5.51515L0.803043 0.636368C0.803043 0.433929 0.899363 0.243568 1.06247 0.123656C1.22557 0.00374383 1.43599 -0.0314107 1.62922 0.0289717L2.19352 0.205317C6.37312 1.51144 10.4083 3.24128 14.2362 5.36787L16.1727 6.44372C16.3747 6.55595 16.5 6.76889 16.5 7ZM14.5533 7L13.6181 6.48044C9.946 4.4404 6.07931 2.77285 2.07577 1.50257L2.07577 4.92933C4.5619 5.15356 7.02098 5.6171 9.41879 6.31373L9.67754 6.3889C9.9496 6.46794 10.1366 6.71731 10.1364 7.00062C10.1361 7.28392 9.94857 7.53293 9.67636 7.61144L9.34496 7.70702C6.97052 8.39186 4.5364 8.84831 2.07577 9.07032L2.07577 12.4974C6.07931 11.2271 9.946 9.5596 13.6181 7.51957L14.5533 7Z" fill="#F1F1F9"/>
</svg>
