<svg width="18" height="20" viewBox="0 0 18 20" fill="none" xmlns="http://www.w3.org/2000/svg">
<path d="M9 6.75006C7.20507 6.75006 5.75 8.20514 5.75 10.0001C5.75 11.795 7.20507 13.2501 9 13.2501C10.7949 13.2501 12.25 11.795 12.25 10.0001C12.25 8.20514 10.7949 6.75006 9 6.75006Z" fill="black"/>
<path fill-rule="evenodd" clip-rule="evenodd" d="M9.67993 0.805819C9.25709 0.570912 8.74296 0.570912 8.32013 0.805818L1.12012 4.80582C0.675673 5.05274 0.400024 5.5212 0.400024 6.02964V13.9705C0.400024 14.4789 0.675671 14.9474 1.12012 15.1943L8.32013 19.1943C8.74296 19.4292 9.2571 19.4292 9.67993 19.1943L16.8799 15.1943C17.3244 14.9474 17.6 14.4789 17.6 13.9705V6.02964C17.6 5.5212 17.3244 5.05274 16.8799 4.80582L9.67993 0.805819ZM4.25 10.0001C4.25 7.37671 6.37665 5.25006 9 5.25006C11.6234 5.25006 13.75 7.37671 13.75 10.0001C13.75 12.6234 11.6234 14.7501 9 14.7501C6.37665 14.7501 4.25 12.6234 4.25 10.0001Z" fill="black"/>
</svg>
