<svg width="17" height="16" viewBox="0 0 17 16" fill="none" xmlns="http://www.w3.org/2000/svg">
<path d="M8.75 14C8.33579 14 8 14.3358 8 14.75C8 15.1642 8.33579 15.5 8.75 15.5H14.75C15.7165 15.5 16.5 14.7165 16.5 13.75V1.75C16.5 0.783502 15.7165 0 14.75 0H8.75C8.33579 0 8 0.335788 8 0.750001C8 1.16421 8.33579 1.5 8.75 1.5L14.75 1.5C14.8881 1.5 15 1.61193 15 1.75L15 13.75C15 13.8881 14.8881 14 14.75 14H8.75Z" fill="#F1F1F9"/>
<path fill-rule="evenodd" clip-rule="evenodd" d="M0 8.86522C0 9.55557 0.559643 10.1152 1.25 10.1152H5.8626C5.86912 10.1886 5.87595 10.262 5.88308 10.3354L5.93711 10.8913C6.01954 11.7394 6.92014 12.2473 7.68856 11.8791C9.32279 11.0959 10.9014 9.92055 12.1549 8.6118C12.6191 8.12712 12.6191 7.36278 12.1549 6.87811L12.0557 6.77454C10.8022 5.46578 9.32279 4.39403 7.68856 3.61084C6.92014 3.24258 6.01954 3.75049 5.93711 4.5986L5.88308 5.15448C5.87595 5.22787 5.86912 5.30128 5.8626 5.3747L1.25 5.3747C0.559644 5.3747 0 5.93435 0 6.6247V8.86522ZM7.30321 9.28069C7.26071 8.90373 6.94132 8.61522 6.55797 8.61522H1.5L1.5 6.8747H6.55797C6.95406 6.8747 7.28186 6.56671 7.30652 6.17139C7.32466 5.88051 7.34784 5.58987 7.37605 5.29959L7.39173 5.13824C8.69657 5.81069 9.88416 6.6909 10.9077 7.74496C10.4803 8.18505 10.0244 8.59484 9.54324 8.97186C8.87201 9.49782 8.15176 9.95998 7.39173 10.3517L7.37605 10.1903C7.34784 9.90005 7.32466 9.60941 7.30652 9.31853C7.30572 9.30582 7.30462 9.29321 7.30321 9.28069Z" fill="#F1F1F9"/>
</svg>
