<svg width="22" height="25" viewBox="0 0 22 25" fill="none" xmlns="http://www.w3.org/2000/svg">
<path fill-rule="evenodd" clip-rule="evenodd" d="M4.96774 6.03226C4.96774 2.70073 7.66848 0 11 0C14.3315 0 17.0323 2.70073 17.0323 6.03226C17.0323 9.36378 14.3315 12.0645 11 12.0645C7.66848 12.0645 4.96774 9.36378 4.96774 6.03226ZM11 2.12903C8.84431 2.12903 7.09677 3.87657 7.09677 6.03226C7.09677 8.18795 8.84431 9.93548 11 9.93548C13.1557 9.93548 14.9032 8.18795 14.9032 6.03226C14.9032 3.87657 13.1557 2.12903 11 2.12903Z" fill="#F1F1F9"/>
<path fill-rule="evenodd" clip-rule="evenodd" d="M5.32258 16.3226C3.55883 16.3226 2.12903 17.7524 2.12903 19.5161V21.2027C2.12903 21.2284 2.14764 21.2503 2.17299 21.2544C8.01896 22.2089 13.981 22.2089 19.827 21.2544C19.8524 21.2503 19.871 21.2284 19.871 21.2027V19.5161C19.871 17.7524 18.4412 16.3226 16.6774 16.3226H16.1936C16.1562 16.3226 16.119 16.3285 16.0835 16.3401L14.855 16.7412C12.3501 17.5592 9.64992 17.5592 7.14501 16.7412L5.91654 16.3401C5.88098 16.3285 5.8438 16.3226 5.80639 16.3226H5.32258ZM0 19.5161C0 16.5765 2.383 14.1935 5.32258 14.1935H5.80639C6.06825 14.1935 6.32847 14.235 6.57739 14.3162L7.80586 14.7174C9.88136 15.3951 12.1186 15.3951 14.1941 14.7174L15.4226 14.3162C15.6715 14.235 15.9317 14.1935 16.1936 14.1935H16.6774C19.617 14.1935 22 16.5765 22 19.5161V21.2027C22 22.2718 21.2252 23.1834 20.1701 23.3557C14.0969 24.3472 7.90311 24.3472 1.82993 23.3557C0.774803 23.1834 0 22.2718 0 21.2027V19.5161Z" fill="#F1F1F9"/>
</svg>
